<svg width="612" height="332" viewBox="0 0 612 332" version="1.1" xmlns="http://www.w3.org/2000/svg" xmlns:xlink="http://www.w3.org/1999/xlink">
<title>illustration-metric</title>
<desc>Created using Figma</desc>
<g id="Canvas" transform="translate(-1399 -134)">
<g id="illustration-metric">
<g id="box" filter="url(#filter0_d)">
<use xlink:href="#path0_fill" transform="translate(1405 135)" fill="#FFFFFF"/>
<use xlink:href="#path0_fill" transform="translate(1405 135)" fill="#FFFFFF"/>
<mask id="mask0_outline_out">
<rect id="mask0_outline_inv" fill="white" x="-1" y="-1" width="602" height="322" transform="translate(1405 135)"/>
<use xlink:href="#path0_fill" fill="black" transform="translate(1405 135)"/>
</mask>
<g mask="url(#mask0_outline_out)">
<use xlink:href="#path1_stroke_2x" transform="translate(1405 135)" fill="#E0E0E0"/>
<use xlink:href="#path1_stroke_2x" transform="translate(1405 135)" fill="#E0E0E0"/>
</g>
</g>
<g id="Ellipse">
<use xlink:href="#path2_fill" transform="translate(1585 220)" fill="#3B97D3"/>
</g>
<g id="Ellipse">
<use xlink:href="#path2_fill" transform="translate(1756 220)" fill="#90C47E"/>
</g>
<g id="graph lines">
<g id="line">
<use xlink:href="#path3_fill" transform="translate(1454.56 288.278)" fill="#E0E0E0"/>
</g>
<g id="line">
<use xlink:href="#path3_fill" transform="translate(1454.56 329.278)" fill="#E0E0E0"/>
</g>
<g id="line">
<use xlink:href="#path3_fill" transform="translate(1454.56 370.278)" fill="#E0E0E0"/>
</g>
<g id="line">
<use xlink:href="#path3_fill" transform="translate(1454.56 411.278)" fill="#E0E0E0"/>
</g>
</g>
<g id="6 month history">
<use xlink:href="#path4_fill" transform="translate(1426 214)" fill="#4E5356"/>
</g>
<g id="header">
<g id="line">
<use xlink:href="#path5_fill" transform="translate(1405 193)" fill="#E0E0E0"/>
</g>
<g id="ios-arrow-right">
<g id="Vector">
<g id="Vector">
<use xlink:href="#path6_fill" transform="translate(1472 160)" fill="#919AA1"/>
</g>
</g>
</g>
<g id="ios-arrow-right">
<g id="Vector">
<g id="Vector">
<use xlink:href="#path6_fill" transform="matrix(6.12323e-17 1 -1 6.12323e-17 1632 162)" fill="#919AA1"/>
</g>
</g>
</g>
<g id="Visually Complete">
<use xlink:href="#path7_fill" transform="translate(1483 155)" fill="#3B97D3"/>
</g>
<g id="Pulse">
<use xlink:href="#path8_fill" transform="translate(1425 155)" fill="#3B97D3"/>
</g>
</g>
<g id="Chrome Desktop">
<use xlink:href="#path9_fill" transform="translate(1605 216)" fill="#919AA1"/>
</g>
<g id="iPhone 7, 3G Connection">
<use xlink:href="#path10_fill" transform="translate(1776 216)" fill="#919AA1"/>
</g>
<g id="metrics">
<g id="1">
<use xlink:href="#path11_fill" transform="translate(1425 402)" fill="#919AA1"/>
</g>
<g id="2">
<use xlink:href="#path12_fill" transform="translate(1425 362)" fill="#919AA1"/>
</g>
<g id="3">
<use xlink:href="#path13_fill" transform="translate(1425 320)" fill="#919AA1"/>
</g>
<g id="4">
<use xlink:href="#path14_fill" transform="translate(1425 279)" fill="#919AA1"/>
</g>
</g>
<g id="metric chrome">
<use xlink:href="#path15_stroke" transform="translate(1471 273)" fill="#3B97D3"/>
</g>
<g id="metric iphone">
<use xlink:href="#path16_stroke" transform="translate(1469 261)" fill="#90C47E"/>
</g>
</g>
</g>
<defs>
<filter id="filter0_d" filterUnits="userSpaceOnUse" x="1399" y="134" width="612" height="332" color-interpolation-filters="sRGB">
<feFlood flood-opacity="0" result="BackgroundImageFix"/>
<feColorMatrix in="SourceAlpha" type="matrix" values="0 0 0 0 0 0 0 0 0 0 0 0 0 0 0 0 0 0 255 0"/>
<feOffset dx="0" dy="5"/>
<feGaussianBlur stdDeviation="2.5"/>
<feColorMatrix type="matrix" values="0 0 0 0 0.901961 0 0 0 0 0.972549 0 0 0 0 1 0 0 0 0.5 0"/>
<feBlend mode="normal" in2="BackgroundImageFix" result="effect1_dropShadow"/>
<feBlend mode="normal" in="SourceGraphic" in2="effect1_dropShadow" result="shape"/>
</filter>
<path id="path0_fill" d="M 0 3.55556C 0 3.55556 0 3.55556 0 3.55556C 0 1.59188 1.79087 0 4 0C 4 0 4 0 4 0L 596 0C 596 0 596 0 596 0C 598.209 0 600 1.59188 600 3.55556C 600 3.55556 600 3.55556 600 3.55556L 600 316.444C 600 316.444 600 316.444 600 316.444C 600 318.408 598.209 320 596 320C 596 320 596 320 596 320L 4 320C 4 320 4 320 4 320C 1.79087 320 0 318.408 0 316.444C 0 316.444 0 316.444 0 316.444L 0 3.55556Z"/>
<path id="path1_stroke_2x" d="M 1 3.55556C 1 2.25164 2.22917 1 4 1L 4 -1C 1.35256 -1 -1 0.932123 -1 3.55556L 1 3.55556ZM 4 1L 596 1L 596 -1L 4 -1L 4 1ZM 596 1C 597.771 1 599 2.25161 599 3.55556L 601 3.55556C 601 0.932154 598.648 -1 596 -1L 596 1ZM 599 3.55556L 599 316.444L 601 316.444L 601 3.55556L 599 3.55556ZM 599 316.444C 599 317.749 597.771 319 596 319L 596 321C 598.648 321 601 319.068 601 316.444L 599 316.444ZM 596 319L 4 319L 4 321L 596 321L 596 319ZM 4 319C 2.22913 319 1 317.749 1 316.444L -1 316.444C -1 319.068 1.3526 321 4 321L 4 319ZM 1 316.444L 1 3.55556L -1 3.55556L -1 316.444L 1 316.444ZM -1 316.444C -1 316.444 -1 316.444 -1 316.444C -1 316.444 -1 316.444 -1 316.444C -1 316.444 -1 316.444 -1 316.444C -1 316.444 -1 316.444 -1 316.444C 0 316.444 1 316.444 1 316.444C 1 316.444 1 316.444 1 316.444C 1 316.444 1 316.444 1 316.444C 1 316.444 1 316.444 1 316.444C 1 316.444 1 316.444 1 316.444C 1 316.444 1 316.444 1 316.444C 1 316.444 1 316.444 1 316.444C 1 316.444 1 316.444 1 316.444C 1 316.444 1 316.444 1 316.444C 1 316.444 0 316.444 -1 316.444C -1 316.444 -1 316.444 -1 316.444C -1 316.444 -1 316.444 -1 316.444C -1 316.444 -1 316.444 -1 316.444C -1 316.444 -1 316.444 -1 316.444L 1 316.444C 1 316.444 1 316.444 1 316.444C 1 316.444 1 316.444 1 316.444C 1 316.444 1 316.444 1 316.444C 1 316.444 1 316.444 1 316.444C 0 316.444 -1 316.444 -1 316.444C -1 316.444 -1 316.444 -1 316.444C -1 316.444 -1 316.444 -1 316.444C -1 316.444 -1 316.444 -1 316.444C -1 316.444 -1 316.444 -1 316.444C -1 316.444 -1 316.444 -1 316.444C -1 316.444 -1 316.444 -1 316.444C -1 316.444 -1 316.444 -1 316.444C -1 316.444 -1 316.444 -1 316.444C -1 316.444 0 316.444 1 316.444C 1 316.444 1 316.444 1 316.444C 1 316.444 1 316.444 1 316.444C 1 316.444 1 316.444 1 316.444C 1 316.444 1 316.444 1 316.444L -1 316.444ZM 4 321C 4 321 4 321 4 321C 4 321 4 321 4 321C 4 321 4 321 4 321C 4 321 4 321 4 321C 4 320 4 319 4 319C 4 319 4 319 4 319C 4 319 4 319 4 319C 4 319 4 319 4 319C 4 319 4 319 4 319C 4 319 4 319 4 319C 4 319 4 319 4 319C 4 319 4 319 4 319C 4 319 4 319 4 319C 4 319 4 320 4 321C 4 321 4 321 4 321C 4 321 4 321 4 321C 4 321 4 321 4 321C 4 321 4 321 4 321L 4 319C 4 319 4 319 4 319C 4 319 4 319 4 319C 4 319 4 319 4 319C 4 319 4 319 4 319C 4 320 4 321 4 321C 4 321 4 321 4 321C 4 321 4 321 4 321C 4 321 4 321 4 321C 4 321 4 321 4 321C 4 321 4 321 4 321C 4 321 4 321 4 321C 4 321 4 321 4 321C 4 321 4 321 4 321C 4 321 4 320 4 319C 4 319 4 319 4 319C 4 319 4 319 4 319C 4 319 4 319 4 319C 4 319 4 319 4 319L 4 321ZM 596 321C 596 321 596 321 596 321C 596 321 596 321 596 321C 596 321 596 321 596 321C 596 321 596 321 596 321C 596 320 596 319 596 319C 596 319 596 319 596 319C 596 319 596 319 596 319C 596 319 596 319 596 319C 596 319 596 319 596 319C 596 319 596 319 596 319C 596 319 596 319 596 319C 596 319 596 319 596 319C 596 319 596 319 596 319C 596 319 596 320 596 321C 596 321 596 321 596 321C 596 321 596 321 596 321C 596 321 596 321 596 321C 596 321 596 321 596 321L 596 319C 596 319 596 319 596 319C 596 319 596 319 596 319C 596 319 596 319 596 319C 596 319 596 319 596 319C 596 320 596 321 596 321C 596 321 596 321 596 321C 596 321 596 321 596 321C 596 321 596 321 596 321C 596 321 596 321 596 321C 596 321 596 321 596 321C 596 321 596 321 596 321C 596 321 596 321 596 321C 596 321 596 321 596 321C 596 321 596 320 596 319C 596 319 596 319 596 319C 596 319 596 319 596 319C 596 319 596 319 596 319C 596 319 596 319 596 319L 596 321ZM 601 316.444C 601 316.444 601 316.444 601 316.444C 601 316.444 601 316.444 601 316.444C 601 316.444 601 316.444 601 316.444C 601 316.444 601 316.444 601 316.444C 600 316.444 599 316.444 599 316.444C 599 316.444 599 316.444 599 316.444C 599 316.444 599 316.444 599 316.444C 599 316.444 599 316.444 599 316.444C 599 316.444 599 316.444 599 316.444C 599 316.444 599 316.444 599 316.444C 599 316.444 599 316.444 599 316.444C 599 316.444 599 316.444 599 316.444C 599 316.444 599 316.444 599 316.444C 599 316.444 600 316.444 601 316.444C 601 316.444 601 316.444 601 316.444C 601 316.444 601 316.444 601 316.444C 601 316.444 601 316.444 601 316.444C 601 316.444 601 316.444 601 316.444L 599 316.444C 599 316.444 599 316.444 599 316.444C 599 316.444 599 316.444 599 316.444C 599 316.444 599 316.444 599 316.444C 599 316.444 599 316.444 599 316.444C 600 316.444 601 316.444 601 316.444C 601 316.444 601 316.444 601 316.444C 601 316.444 601 316.444 601 316.444C 601 316.444 601 316.444 601 316.444C 601 316.444 601 316.444 601 316.444C 601 316.444 601 316.444 601 316.444C 601 316.444 601 316.444 601 316.444C 601 316.444 601 316.444 601 316.444C 601 316.444 601 316.444 601 316.444C 601 316.444 600 316.444 599 316.444C 599 316.444 599 316.444 599 316.444C 599 316.444 599 316.444 599 316.444C 599 316.444 599 316.444 599 316.444C 599 316.444 599 316.444 599 316.444L 601 316.444ZM 601 3.55556C 601 3.55556 601 3.55556 601 3.55556C 601 3.55556 601 3.55556 601 3.55556C 601 3.55556 601 3.55556 601 3.55556C 601 3.55556 601 3.55556 601 3.55556C 600 3.55556 599 3.55556 599 3.55556C 599 3.55556 599 3.55556 599 3.55556C 599 3.55556 599 3.55556 599 3.55556C 599 3.55556 599 3.55556 599 3.55556C 599 3.55556 599 3.55556 599 3.55556C 599 3.55556 599 3.55556 599 3.55556C 599 3.55556 599 3.55556 599 3.55556C 599 3.55556 599 3.55556 599 3.55556C 599 3.55556 599 3.55556 599 3.55556C 599 3.55556 600 3.55556 601 3.55556C 601 3.55556 601 3.55556 601 3.55556C 601 3.55556 601 3.55556 601 3.55556C 601 3.55556 601 3.55556 601 3.55556C 601 3.55556 601 3.55556 601 3.55556L 599 3.55556C 599 3.55556 599 3.55556 599 3.55556C 599 3.55556 599 3.55556 599 3.55556C 599 3.55556 599 3.55556 599 3.55556C 599 3.55556 599 3.55556 599 3.55556C 600 3.55556 601 3.55556 601 3.55556C 601 3.55556 601 3.55556 601 3.55556C 601 3.55556 601 3.55556 601 3.55556C 601 3.55556 601 3.55556 601 3.55556C 601 3.55556 601 3.55556 601 3.55556C 601 3.55556 601 3.55556 601 3.55556C 601 3.55556 601 3.55556 601 3.55556C 601 3.55556 601 3.55556 601 3.55556C 601 3.55556 601 3.55556 601 3.55556C 601 3.55556 600 3.55556 599 3.55556C 599 3.55556 599 3.55556 599 3.55556C 599 3.55556 599 3.55556 599 3.55556C 599 3.55556 599 3.55556 599 3.55556C 599 3.55556 599 3.55556 599 3.55556L 601 3.55556ZM 596 -1C 596 -1 596 -1 596 -1C 596 -1 596 -1 596 -1C 596 -1 596 -1 596 -1C 596 -1 596 -1 596 -1C 596 0 596 1 596 1C 596 1 596 1 596 1C 596 1 596 1 596 1C 596 1 596 1 596 1C 596 1 596 1 596 1C 596 1 596 1 596 1C 596 1 596 1 596 1C 596 1 596 1 596 1C 596 1 596 1 596 1C 596 1 596 0 596 -1C 596 -1 596 -1 596 -1C 596 -1 596 -1 596 -1C 596 -1 596 -1 596 -1C 596 -1 596 -1 596 -1L 596 1C 596 1 596 1 596 1C 596 1 596 1 596 1C 596 1 596 1 596 1C 596 1 596 1 596 1C 596 0 596 -1 596 -1C 596 -1 596 -1 596 -1C 596 -1 596 -1 596 -1C 596 -1 596 -1 596 -1C 596 -1 596 -1 596 -1C 596 -1 596 -1 596 -1C 596 -1 596 -1 596 -1C 596 -1 596 -1 596 -1C 596 -1 596 -1 596 -1C 596 -1 596 0 596 1C 596 1 596 1 596 1C 596 1 596 1 596 1C 596 1 596 1 596 1C 596 1 596 1 596 1L 596 -1ZM 4 -1C 4 -1 4 -1 4 -1C 4 -1 4 -1 4 -1C 4 -1 4 -1 4 -1C 4 -1 4 -1 4 -1C 4 0 4 1 4 1C 4 1 4 1 4 1C 4 1 4 1 4 1C 4 1 4 1 4 1C 4 1 4 1 4 1C 4 1 4 1 4 1C 4 1 4 1 4 1C 4 1 4 1 4 1C 4 1 4 1 4 1C 4 1 4 0 4 -1C 4 -1 4 -1 4 -1C 4 -1 4 -1 4 -1C 4 -1 4 -1 4 -1C 4 -1 4 -1 4 -1L 4 1C 4 1 4 1 4 1C 4 1 4 1 4 1C 4 1 4 1 4 1C 4 1 4 1 4 1C 4 0 4 -1 4 -1C 4 -1 4 -1 4 -1C 4 -1 4 -1 4 -1C 4 -1 4 -1 4 -1C 4 -1 4 -1 4 -1C 4 -1 4 -1 4 -1C 4 -1 4 -1 4 -1C 4 -1 4 -1 4 -1C 4 -1 4 -1 4 -1C 4 -1 4 0 4 1C 4 1 4 1 4 1C 4 1 4 1 4 1C 4 1 4 1 4 1C 4 1 4 1 4 1L 4 -1ZM 1 3.55556C 1 3.55556 1 3.55556 1 3.55556C 1 3.55556 1 3.55556 1 3.55556C 1 3.55556 1 3.55556 1 3.55556C 1 3.55556 1 3.55556 1 3.55556C 0 3.55556 -1 3.55556 -1 3.55556C -1 3.55556 -1 3.55556 -1 3.55556C -1 3.55556 -1 3.55556 -1 3.55556C -1 3.55556 -1 3.55556 -1 3.55556C -1 3.55556 -1 3.55556 -1 3.55556C -1 3.55556 -1 3.55556 -1 3.55556C -1 3.55556 -1 3.55556 -1 3.55556C -1 3.55556 -1 3.55556 -1 3.55556C -1 3.55556 -1 3.55556 -1 3.55556C -1 3.55556 0 3.55556 1 3.55556C 1 3.55556 1 3.55556 1 3.55556C 1 3.55556 1 3.55556 1 3.55556C 1 3.55556 1 3.55556 1 3.55556C 1 3.55556 1 3.55556 1 3.55556L -1 3.55556C -1 3.55556 -1 3.55556 -1 3.55556C -1 3.55556 -1 3.55556 -1 3.55556C -1 3.55556 -1 3.55556 -1 3.55556C -1 3.55556 -1 3.55556 -1 3.55556C 0 3.55556 1 3.55556 1 3.55556C 1 3.55556 1 3.55556 1 3.55556C 1 3.55556 1 3.55556 1 3.55556C 1 3.55556 1 3.55556 1 3.55556C 1 3.55556 1 3.55556 1 3.55556C 1 3.55556 1 3.55556 1 3.55556C 1 3.55556 1 3.55556 1 3.55556C 1 3.55556 1 3.55556 1 3.55556C 1 3.55556 1 3.55556 1 3.55556C 1 3.55556 0 3.55556 -1 3.55556C -1 3.55556 -1 3.55556 -1 3.55556C -1 3.55556 -1 3.55556 -1 3.55556C -1 3.55556 -1 3.55556 -1 3.55556C -1 3.55556 -1 3.55556 -1 3.55556L 1 3.55556Z"/>
<path id="path2_fill" d="M 10 5C 10 7.76142 7.76142 10 5 10C 2.23858 10 0 7.76142 0 5C 0 2.23858 2.23858 0 5 0C 7.76142 0 10 2.23858 10 5Z"/>
<path id="path3_fill" d="M 0 1L 520 1L 520 0L 0 0L 0 1Z"/>
<path id="path4_fill" d="M 5.24219 15.2578C 7.55469 15.2578 9.19531 13.6406 9.19531 11.375C 9.19531 9.1875 7.64062 7.60156 5.49219 7.60156C 4.14844 7.60156 3.04688 8.24219 2.49219 9.33594L 2.36719 9.33594C 2.44531 6.33594 3.48438 4.71094 5.32031 4.71094C 6.42969 4.71094 7.28125 5.35156 7.58594 6.40625L 9.03125 6.40625C 8.67188 4.59375 7.25 3.46094 5.33594 3.46094C 2.57812 3.46094 1 5.67969 1 9.55469C 1 10.7969 1.17969 11.8359 1.54688 12.6953C 2.25 14.3516 3.54688 15.2578 5.24219 15.2578ZM 5.22656 14.0234C 3.78125 14.0234 2.67969 12.8828 2.67969 11.375C 2.67969 9.88281 3.75 8.82031 5.24219 8.82031C 6.73438 8.82031 7.77344 9.88281 7.77344 11.4219C 7.77344 12.8984 6.67188 14.0234 5.22656 14.0234ZM 15.9844 15L 17.3281 15L 17.3281 9.78125C 17.3281 8.59375 18.1797 7.64062 19.2812 7.64062C 20.3438 7.64062 21.0391 8.28125 21.0391 9.28125L 21.0391 15L 22.3828 15L 22.3828 9.58594C 22.3828 8.51562 23.1641 7.64062 24.3359 7.64062C 25.5234 7.64062 26.1094 8.25 26.1094 9.49219L 26.1094 15L 27.4531 15L 27.4531 9.17969C 27.4531 7.41406 26.4922 6.42969 24.7734 6.42969C 23.6094 6.42969 22.6484 7.01562 22.1953 7.90625L 22.0703 7.90625C 21.6797 7.03125 20.8828 6.42969 19.7422 6.42969C 18.6172 6.42969 17.7734 6.96875 17.3906 7.90625L 17.2656 7.90625L 17.2656 6.57812L 15.9844 6.57812L 15.9844 15ZM 33.3672 15.1484C 35.7656 15.1484 37.25 13.4922 37.25 10.7891C 37.25 8.07812 35.7656 6.42969 33.3672 6.42969C 30.9688 6.42969 29.4844 8.07812 29.4844 10.7891C 29.4844 13.4922 30.9688 15.1484 33.3672 15.1484ZM 33.3672 13.9375C 31.7734 13.9375 30.875 12.7812 30.875 10.7891C 30.875 8.78906 31.7734 7.64062 33.3672 7.64062C 34.9609 7.64062 35.8594 8.78906 35.8594 10.7891C 35.8594 12.7812 34.9609 13.9375 33.3672 13.9375ZM 39.3594 15L 40.7031 15L 40.7031 10.0156C 40.7031 8.53906 41.5703 7.64062 42.9141 7.64062C 44.2578 7.64062 44.8984 8.35938 44.8984 9.875L 44.8984 15L 46.2422 15L 46.2422 9.54688C 46.2422 7.54688 45.1875 6.42969 43.2969 6.42969C 42.0078 6.42969 41.1875 6.97656 40.7656 7.90625L 40.6406 7.90625L 40.6406 6.57812L 39.3594 6.57812L 39.3594 15ZM 49.2656 4.39844L 49.2656 6.57812L 47.9062 6.57812L 47.9062 7.70312L 49.2656 7.70312L 49.2656 12.8125C 49.2656 14.4219 49.9609 15.0625 51.6953 15.0625C 51.9609 15.0625 52.2188 15.0312 52.4844 14.9844L 52.4844 13.8516C 52.2344 13.875 52.1016 13.8828 51.8594 13.8828C 50.9844 13.8828 50.6094 13.4609 50.6094 12.4688L 50.6094 7.70312L 52.4844 7.70312L 52.4844 6.57812L 50.6094 6.57812L 50.6094 4.39844L 49.2656 4.39844ZM 54.5938 15L 55.9375 15L 55.9375 10.0156C 55.9375 8.59375 56.7656 7.64062 58.2734 7.64062C 59.5469 7.64062 60.2188 8.38281 60.2188 9.875L 60.2188 15L 61.5625 15L 61.5625 9.54688C 61.5625 7.57031 60.4375 6.42969 58.6562 6.42969C 57.3672 6.42969 56.4844 6.97656 56.0625 7.90625L 55.9375 7.90625L 55.9375 3.23438L 54.5938 3.23438L 54.5938 15ZM 68.6094 15L 69.9531 15L 69.9531 10.0156C 69.9531 8.59375 70.7812 7.64062 72.2891 7.64062C 73.5625 7.64062 74.2344 8.38281 74.2344 9.875L 74.2344 15L 75.5781 15L 75.5781 9.54688C 75.5781 7.57031 74.4531 6.42969 72.6719 6.42969C 71.3828 6.42969 70.5 6.97656 70.0781 7.90625L 69.9531 7.90625L 69.9531 3.23438L 68.6094 3.23438L 68.6094 15ZM 78.0625 15L 79.4062 15L 79.4062 6.57812L 78.0625 6.57812L 78.0625 15ZM 78.7344 4.86719C 79.25 4.86719 79.6719 4.44531 79.6719 3.92969C 79.6719 3.41406 79.25 2.99219 78.7344 2.99219C 78.2188 2.99219 77.7969 3.41406 77.7969 3.92969C 77.7969 4.44531 78.2188 4.86719 78.7344 4.86719ZM 81.7734 8.88281C 81.7734 10.1016 82.4922 10.7812 84.0703 11.1641L 85.5156 11.5156C 86.4141 11.7344 86.8516 12.125 86.8516 12.7031C 86.8516 13.4766 86.0391 14.0156 84.9062 14.0156C 83.8281 14.0156 83.1562 13.5625 82.9297 12.8516L 81.5469 12.8516C 81.6953 14.25 82.9844 15.1484 84.8594 15.1484C 86.7734 15.1484 88.2344 14.1094 88.2344 12.6016C 88.2344 11.3906 87.4688 10.7031 85.8828 10.3203L 84.5859 10.0078C 83.5938 9.76562 83.125 9.40625 83.125 8.82812C 83.125 8.07812 83.9062 7.57031 84.9062 7.57031C 85.9219 7.57031 86.5781 8.01562 86.7578 8.6875L 88.0859 8.6875C 87.9062 7.30469 86.6797 6.42969 84.9141 6.42969C 83.125 6.42969 81.7734 7.48438 81.7734 8.88281ZM 90.8281 4.39844L 90.8281 6.57812L 89.4688 6.57812L 89.4688 7.70312L 90.8281 7.70312L 90.8281 12.8125C 90.8281 14.4219 91.5234 15.0625 93.2578 15.0625C 93.5234 15.0625 93.7812 15.0312 94.0469 14.9844L 94.0469 13.8516C 93.7969 13.875 93.6641 13.8828 93.4219 13.8828C 92.5469 13.8828 92.1719 13.4609 92.1719 12.4688L 92.1719 7.70312L 94.0469 7.70312L 94.0469 6.57812L 92.1719 6.57812L 92.1719 4.39844L 90.8281 4.39844ZM 99.4141 15.1484C 101.812 15.1484 103.297 13.4922 103.297 10.7891C 103.297 8.07812 101.812 6.42969 99.4141 6.42969C 97.0156 6.42969 95.5312 8.07812 95.5312 10.7891C 95.5312 13.4922 97.0156 15.1484 99.4141 15.1484ZM 99.4141 13.9375C 97.8203 13.9375 96.9219 12.7812 96.9219 10.7891C 96.9219 8.78906 97.8203 7.64062 99.4141 7.64062C 101.008 7.64062 101.906 8.78906 101.906 10.7891C 101.906 12.7812 101.008 13.9375 99.4141 13.9375ZM 105.406 15L 106.75 15L 106.75 9.78125C 106.75 8.59375 107.68 7.73438 108.961 7.73438C 109.227 7.73438 109.711 7.78125 109.82 7.8125L 109.82 6.46875C 109.648 6.44531 109.367 6.42969 109.148 6.42969C 108.031 6.42969 107.062 7.00781 106.812 7.82812L 106.688 7.82812L 106.688 6.57812L 105.406 6.57812L 105.406 15ZM 112.219 18.0469C 113.711 18.0469 114.383 17.4688 115.102 15.5156L 118.391 6.57812L 116.961 6.57812L 114.656 13.5078L 114.531 13.5078L 112.219 6.57812L 110.766 6.57812L 113.883 15.0078L 113.727 15.5078C 113.375 16.5234 112.953 16.8906 112.18 16.8906C 111.992 16.8906 111.781 16.8828 111.617 16.8516L 111.617 18C 111.805 18.0312 112.039 18.0469 112.219 18.0469Z"/>
<path id="path5_fill" d="M 0 1L 600 1L 600 0L 0 0L 0 1Z"/>
<path id="path6_fill" d="M 0 0.60625L 0.646875 0L 6 5L 0.646875 10L 0 9.39688L 4.70312 5L 0 0.60625Z"/>
<path id="path7_fill" d="M 6.08594 15L 10.2422 3.72656L 8.76562 3.72656L 5.45312 13.1797L 5.32812 13.1797L 2.01562 3.72656L 0.539062 3.72656L 4.69531 15L 6.08594 15ZM 12.0781 15L 13.4219 15L 13.4219 6.57812L 12.0781 6.57812L 12.0781 15ZM 12.75 4.86719C 13.2656 4.86719 13.6875 4.44531 13.6875 3.92969C 13.6875 3.41406 13.2656 2.99219 12.75 2.99219C 12.2344 2.99219 11.8125 3.41406 11.8125 3.92969C 11.8125 4.44531 12.2344 4.86719 12.75 4.86719ZM 15.7891 8.88281C 15.7891 10.1016 16.5078 10.7812 18.0859 11.1641L 19.5312 11.5156C 20.4297 11.7344 20.8672 12.125 20.8672 12.7031C 20.8672 13.4766 20.0547 14.0156 18.9219 14.0156C 17.8438 14.0156 17.1719 13.5625 16.9453 12.8516L 15.5625 12.8516C 15.7109 14.25 17 15.1484 18.875 15.1484C 20.7891 15.1484 22.25 14.1094 22.25 12.6016C 22.25 11.3906 21.4844 10.7031 19.8984 10.3203L 18.6016 10.0078C 17.6094 9.76562 17.1406 9.40625 17.1406 8.82812C 17.1406 8.07812 17.9219 7.57031 18.9219 7.57031C 19.9375 7.57031 20.5938 8.01562 20.7734 8.6875L 22.1016 8.6875C 21.9219 7.30469 20.6953 6.42969 18.9297 6.42969C 17.1406 6.42969 15.7891 7.48438 15.7891 8.88281ZM 31.1719 6.57812L 29.8281 6.57812L 29.8281 11.5625C 29.8281 13.0391 29.0156 13.9219 27.5312 13.9219C 26.1875 13.9219 25.625 13.2188 25.625 11.7031L 25.625 6.57812L 24.2812 6.57812L 24.2812 12.0312C 24.2812 14.0234 25.2656 15.1484 27.1562 15.1484C 28.4453 15.1484 29.3438 14.6172 29.7656 13.6797L 29.8906 13.6797L 29.8906 15L 31.1719 15L 31.1719 6.57812ZM 36.2969 13.9688C 35.3203 13.9688 34.5938 13.4688 34.5938 12.6094C 34.5938 11.7656 35.1562 11.3203 36.4375 11.2344L 38.7031 11.0859L 38.7031 11.8594C 38.7031 13.0625 37.6797 13.9688 36.2969 13.9688ZM 36.0469 15.1484C 37.1719 15.1484 38.0938 14.6562 38.6406 13.7578L 38.7656 13.7578L 38.7656 15L 40.0469 15L 40.0469 9.23438C 40.0469 7.48438 38.8984 6.42969 36.8438 6.42969C 35.0469 6.42969 33.7188 7.32031 33.5391 8.67188L 34.8984 8.67188C 35.0859 8.00781 35.7891 7.625 36.7969 7.625C 38.0547 7.625 38.7031 8.19531 38.7031 9.23438L 38.7031 10L 36.2734 10.1484C 34.3125 10.2656 33.2031 11.1328 33.2031 12.6406C 33.2031 14.1797 34.4141 15.1484 36.0469 15.1484ZM 42.6094 15L 43.9531 15L 43.9531 3.23438L 42.6094 3.23438L 42.6094 15ZM 46.6406 15L 47.9844 15L 47.9844 3.23438L 46.6406 3.23438L 46.6406 15ZM 51.3125 18.0469C 52.8047 18.0469 53.4766 17.4688 54.1953 15.5156L 57.4844 6.57812L 56.0547 6.57812L 53.75 13.5078L 53.625 13.5078L 51.3125 6.57812L 49.8594 6.57812L 52.9766 15.0078L 52.8203 15.5078C 52.4688 16.5234 52.0469 16.8906 51.2734 16.8906C 51.0859 16.8906 50.875 16.8828 50.7109 16.8516L 50.7109 18C 50.8984 18.0312 51.1328 18.0469 51.3125 18.0469ZM 68.5078 15.2656C 70.9062 15.2656 72.6875 13.9297 73.0625 11.8594L 71.6328 11.8594C 71.2734 13.1641 70.0781 13.9688 68.5078 13.9688C 66.3359 13.9688 64.9766 12.1953 64.9766 9.36719C 64.9766 6.53906 66.3359 4.75781 68.5 4.75781C 70.0547 4.75781 71.2578 5.67188 71.6328 7.125L 73.0625 7.125C 72.7266 4.95312 70.875 3.46094 68.5 3.46094C 65.4375 3.46094 63.5312 5.72656 63.5312 9.36719C 63.5312 13 65.4453 15.2656 68.5078 15.2656ZM 78.7109 15.1484C 81.1094 15.1484 82.5938 13.4922 82.5938 10.7891C 82.5938 8.07812 81.1094 6.42969 78.7109 6.42969C 76.3125 6.42969 74.8281 8.07812 74.8281 10.7891C 74.8281 13.4922 76.3125 15.1484 78.7109 15.1484ZM 78.7109 13.9375C 77.1172 13.9375 76.2188 12.7812 76.2188 10.7891C 76.2188 8.78906 77.1172 7.64062 78.7109 7.64062C 80.3047 7.64062 81.2031 8.78906 81.2031 10.7891C 81.2031 12.7812 80.3047 13.9375 78.7109 13.9375ZM 84.7031 15L 86.0469 15L 86.0469 9.78125C 86.0469 8.59375 86.8984 7.64062 88 7.64062C 89.0625 7.64062 89.7578 8.28125 89.7578 9.28125L 89.7578 15L 91.1016 15L 91.1016 9.58594C 91.1016 8.51562 91.8828 7.64062 93.0547 7.64062C 94.2422 7.64062 94.8281 8.25 94.8281 9.49219L 94.8281 15L 96.1719 15L 96.1719 9.17969C 96.1719 7.41406 95.2109 6.42969 93.4922 6.42969C 92.3281 6.42969 91.3672 7.01562 90.9141 7.90625L 90.7891 7.90625C 90.3984 7.03125 89.6016 6.42969 88.4609 6.42969C 87.3359 6.42969 86.4922 6.96875 86.1094 7.90625L 85.9844 7.90625L 85.9844 6.57812L 84.7031 6.57812L 84.7031 15ZM 102.727 6.42969C 101.578 6.42969 100.57 7.01562 100.031 7.98438L 99.9062 7.98438L 99.9062 6.57812L 98.625 6.57812L 98.625 17.8125L 99.9688 17.8125L 99.9688 13.7344L 100.094 13.7344C 100.555 14.625 101.523 15.1484 102.727 15.1484C 104.867 15.1484 106.266 13.4219 106.266 10.7891C 106.266 8.14062 104.875 6.42969 102.727 6.42969ZM 102.406 13.9375C 100.891 13.9375 99.9297 12.7188 99.9297 10.7891C 99.9297 8.85156 100.891 7.64062 102.414 7.64062C 103.953 7.64062 104.875 8.82031 104.875 10.7891C 104.875 12.7578 103.953 13.9375 102.406 13.9375ZM 108.453 15L 109.797 15L 109.797 3.23438L 108.453 3.23438L 108.453 15ZM 115.766 7.61719C 117.102 7.61719 117.992 8.60156 118.023 10.0938L 113.383 10.0938C 113.484 8.60156 114.422 7.61719 115.766 7.61719ZM 117.984 12.8203C 117.633 13.5625 116.898 13.9609 115.812 13.9609C 114.383 13.9609 113.453 12.9062 113.383 11.2422L 113.383 11.1797L 119.438 11.1797L 119.438 10.6641C 119.438 8.04688 118.055 6.42969 115.781 6.42969C 113.469 6.42969 111.984 8.14844 111.984 10.7969C 111.984 13.4609 113.445 15.1484 115.781 15.1484C 117.625 15.1484 118.922 14.2656 119.328 12.8203L 117.984 12.8203ZM 122.109 4.39844L 122.109 6.57812L 120.75 6.57812L 120.75 7.70312L 122.109 7.70312L 122.109 12.8125C 122.109 14.4219 122.805 15.0625 124.539 15.0625C 124.805 15.0625 125.062 15.0312 125.328 14.9844L 125.328 13.8516C 125.078 13.875 124.945 13.8828 124.703 13.8828C 123.828 13.8828 123.453 13.4609 123.453 12.4688L 123.453 7.70312L 125.328 7.70312L 125.328 6.57812L 123.453 6.57812L 123.453 4.39844L 122.109 4.39844ZM 130.594 7.61719C 131.93 7.61719 132.82 8.60156 132.852 10.0938L 128.211 10.0938C 128.312 8.60156 129.25 7.61719 130.594 7.61719ZM 132.812 12.8203C 132.461 13.5625 131.727 13.9609 130.641 13.9609C 129.211 13.9609 128.281 12.9062 128.211 11.2422L 128.211 11.1797L 134.266 11.1797L 134.266 10.6641C 134.266 8.04688 132.883 6.42969 130.609 6.42969C 128.297 6.42969 126.812 8.14844 126.812 10.7969C 126.812 13.4609 128.273 15.1484 130.609 15.1484C 132.453 15.1484 133.75 14.2656 134.156 12.8203L 132.812 12.8203Z"/>
<path id="path8_fill" d="M 1.4375 3.72656L 1.4375 15L 2.84375 15L 2.84375 10.9766L 5.67969 10.9766C 7.79688 10.9766 9.30469 9.48438 9.30469 7.375C 9.30469 5.22656 7.82812 3.72656 5.69531 3.72656L 1.4375 3.72656ZM 2.84375 4.97656L 5.32812 4.97656C 6.96094 4.97656 7.85938 5.82812 7.85938 7.375C 7.85938 8.86719 6.92969 9.72656 5.32812 9.72656L 2.84375 9.72656L 2.84375 4.97656ZM 18.25 6.57812L 16.9062 6.57812L 16.9062 11.5625C 16.9062 13.0391 16.0938 13.9219 14.6094 13.9219C 13.2656 13.9219 12.7031 13.2188 12.7031 11.7031L 12.7031 6.57812L 11.3594 6.57812L 11.3594 12.0312C 11.3594 14.0234 12.3438 15.1484 14.2344 15.1484C 15.5234 15.1484 16.4219 14.6172 16.8438 13.6797L 16.9688 13.6797L 16.9688 15L 18.25 15L 18.25 6.57812ZM 20.8594 15L 22.2031 15L 22.2031 3.23438L 20.8594 3.23438L 20.8594 15ZM 24.6172 8.88281C 24.6172 10.1016 25.3359 10.7812 26.9141 11.1641L 28.3594 11.5156C 29.2578 11.7344 29.6953 12.125 29.6953 12.7031C 29.6953 13.4766 28.8828 14.0156 27.75 14.0156C 26.6719 14.0156 26 13.5625 25.7734 12.8516L 24.3906 12.8516C 24.5391 14.25 25.8281 15.1484 27.7031 15.1484C 29.6172 15.1484 31.0781 14.1094 31.0781 12.6016C 31.0781 11.3906 30.3125 10.7031 28.7266 10.3203L 27.4297 10.0078C 26.4375 9.76562 25.9688 9.40625 25.9688 8.82812C 25.9688 8.07812 26.75 7.57031 27.75 7.57031C 28.7656 7.57031 29.4219 8.01562 29.6016 8.6875L 30.9297 8.6875C 30.75 7.30469 29.5234 6.42969 27.7578 6.42969C 25.9688 6.42969 24.6172 7.48438 24.6172 8.88281ZM 36.5469 7.61719C 37.8828 7.61719 38.7734 8.60156 38.8047 10.0938L 34.1641 10.0938C 34.2656 8.60156 35.2031 7.61719 36.5469 7.61719ZM 38.7656 12.8203C 38.4141 13.5625 37.6797 13.9609 36.5938 13.9609C 35.1641 13.9609 34.2344 12.9062 34.1641 11.2422L 34.1641 11.1797L 40.2188 11.1797L 40.2188 10.6641C 40.2188 8.04688 38.8359 6.42969 36.5625 6.42969C 34.25 6.42969 32.7656 8.14844 32.7656 10.7969C 32.7656 13.4609 34.2266 15.1484 36.5625 15.1484C 38.4062 15.1484 39.7031 14.2656 40.1094 12.8203L 38.7656 12.8203Z"/>
<path id="path9_fill" d="M 5.22949 13.2324C 7.32812 13.2324 8.88672 12.0635 9.21484 10.252L 7.96387 10.252C 7.64941 11.3936 6.60352 12.0977 5.22949 12.0977C 3.3291 12.0977 2.13965 10.5459 2.13965 8.07129C 2.13965 5.59668 3.3291 4.03809 5.22266 4.03809C 6.58301 4.03809 7.63574 4.83789 7.96387 6.10938L 9.21484 6.10938C 8.9209 4.20898 7.30078 2.90332 5.22266 2.90332C 2.54297 2.90332 0.875 4.88574 0.875 8.07129C 0.875 11.25 2.5498 13.2324 5.22949 13.2324ZM 11.1973 13L 12.373 13L 12.373 8.63867C 12.373 7.39453 13.0977 6.56055 14.417 6.56055C 15.5312 6.56055 16.1191 7.20996 16.1191 8.51562L 16.1191 13L 17.2949 13L 17.2949 8.22852C 17.2949 6.49902 16.3105 5.50098 14.752 5.50098C 13.624 5.50098 12.8516 5.97949 12.4824 6.79297L 12.373 6.79297L 12.373 2.70508L 11.1973 2.70508L 11.1973 13ZM 19.4414 13L 20.6172 13L 20.6172 8.43359C 20.6172 7.39453 21.4307 6.64258 22.5518 6.64258C 22.7842 6.64258 23.208 6.68359 23.3037 6.71094L 23.3037 5.53516C 23.1533 5.51465 22.9072 5.50098 22.7158 5.50098C 21.7383 5.50098 20.8906 6.00684 20.6719 6.72461L 20.5625 6.72461L 20.5625 5.63086L 19.4414 5.63086L 19.4414 13ZM 27.5967 13.1299C 29.6953 13.1299 30.9941 11.6807 30.9941 9.31543C 30.9941 6.94336 29.6953 5.50098 27.5967 5.50098C 25.498 5.50098 24.1992 6.94336 24.1992 9.31543C 24.1992 11.6807 25.498 13.1299 27.5967 13.1299ZM 27.5967 12.0703C 26.2021 12.0703 25.416 11.0586 25.416 9.31543C 25.416 7.56543 26.2021 6.56055 27.5967 6.56055C 28.9912 6.56055 29.7773 7.56543 29.7773 9.31543C 29.7773 11.0586 28.9912 12.0703 27.5967 12.0703ZM 32.8398 13L 34.0156 13L 34.0156 8.43359C 34.0156 7.39453 34.7607 6.56055 35.7246 6.56055C 36.6543 6.56055 37.2627 7.12109 37.2627 7.99609L 37.2627 13L 38.4385 13L 38.4385 8.2627C 38.4385 7.32617 39.1221 6.56055 40.1475 6.56055C 41.1865 6.56055 41.6992 7.09375 41.6992 8.18066L 41.6992 13L 42.875 13L 42.875 7.90723C 42.875 6.3623 42.0342 5.50098 40.5303 5.50098C 39.5117 5.50098 38.6709 6.01367 38.2744 6.79297L 38.165 6.79297C 37.8232 6.02734 37.126 5.50098 36.1279 5.50098C 35.1436 5.50098 34.4053 5.97266 34.0703 6.79297L 33.9609 6.79297L 33.9609 5.63086L 32.8398 5.63086L 32.8398 13ZM 47.9609 6.54004C 49.1299 6.54004 49.9092 7.40137 49.9365 8.70703L 45.876 8.70703C 45.9648 7.40137 46.7852 6.54004 47.9609 6.54004ZM 49.9023 11.0928C 49.5947 11.7422 48.9521 12.0908 48.002 12.0908C 46.751 12.0908 45.9375 11.168 45.876 9.71191L 45.876 9.65723L 51.1738 9.65723L 51.1738 9.20605C 51.1738 6.91602 49.9639 5.50098 47.9746 5.50098C 45.9512 5.50098 44.6523 7.00488 44.6523 9.32227C 44.6523 11.6533 45.9307 13.1299 47.9746 13.1299C 49.5879 13.1299 50.7227 12.3574 51.0781 11.0928L 49.9023 11.0928ZM 57.1211 3.13574L 57.1211 13L 60.5049 13C 63.4375 13 65.1602 11.1748 65.1602 8.06445C 65.1602 4.96094 63.4307 3.13574 60.5049 3.13574L 57.1211 3.13574ZM 58.3516 4.24316L 60.4229 4.24316C 62.6104 4.24316 63.9023 5.66504 63.9023 8.07812C 63.9023 10.4844 62.624 11.8926 60.4229 11.8926L 58.3516 11.8926L 58.3516 4.24316ZM 70.082 6.54004C 71.251 6.54004 72.0303 7.40137 72.0576 8.70703L 67.9971 8.70703C 68.0859 7.40137 68.9062 6.54004 70.082 6.54004ZM 72.0234 11.0928C 71.7158 11.7422 71.0732 12.0908 70.123 12.0908C 68.8721 12.0908 68.0586 11.168 67.9971 9.71191L 67.9971 9.65723L 73.2949 9.65723L 73.2949 9.20605C 73.2949 6.91602 72.085 5.50098 70.0957 5.50098C 68.0723 5.50098 66.7734 7.00488 66.7734 9.32227C 66.7734 11.6533 68.0518 13.1299 70.0957 13.1299C 71.709 13.1299 72.8438 12.3574 73.1992 11.0928L 72.0234 11.0928ZM 74.9697 7.64746C 74.9697 8.71387 75.5986 9.30859 76.9795 9.64355L 78.2441 9.95117C 79.0303 10.1426 79.4131 10.4844 79.4131 10.9902C 79.4131 11.667 78.7021 12.1387 77.7109 12.1387C 76.7676 12.1387 76.1797 11.7422 75.9814 11.1201L 74.7715 11.1201C 74.9014 12.3438 76.0293 13.1299 77.6699 13.1299C 79.3447 13.1299 80.623 12.2207 80.623 10.9014C 80.623 9.8418 79.9531 9.24023 78.5654 8.90527L 77.4307 8.63184C 76.5625 8.41992 76.1523 8.10547 76.1523 7.59961C 76.1523 6.94336 76.8359 6.49902 77.7109 6.49902C 78.5996 6.49902 79.1738 6.88867 79.3311 7.47656L 80.4932 7.47656C 80.3359 6.2666 79.2627 5.50098 77.7178 5.50098C 76.1523 5.50098 74.9697 6.42383 74.9697 7.64746ZM 83.8223 8.85059L 83.7129 8.85059L 83.7129 2.70508L 82.5371 2.70508L 82.5371 13L 83.7129 13L 83.7129 10.2041L 84.417 9.54785L 87.1787 13L 88.6758 13L 85.292 8.78906L 88.4639 5.63086L 87.0215 5.63086L 83.8223 8.85059ZM 90.5625 3.72363L 90.5625 5.63086L 89.373 5.63086L 89.373 6.61523L 90.5625 6.61523L 90.5625 11.0859C 90.5625 12.4941 91.1709 13.0547 92.6885 13.0547C 92.9209 13.0547 93.1465 13.0273 93.3789 12.9863L 93.3789 11.9951C 93.1602 12.0156 93.0439 12.0225 92.832 12.0225C 92.0664 12.0225 91.7383 11.6533 91.7383 10.7852L 91.7383 6.61523L 93.3789 6.61523L 93.3789 5.63086L 91.7383 5.63086L 91.7383 3.72363L 90.5625 3.72363ZM 98.0752 13.1299C 100.174 13.1299 101.473 11.6807 101.473 9.31543C 101.473 6.94336 100.174 5.50098 98.0752 5.50098C 95.9766 5.50098 94.6777 6.94336 94.6777 9.31543C 94.6777 11.6807 95.9766 13.1299 98.0752 13.1299ZM 98.0752 12.0703C 96.6807 12.0703 95.8945 11.0586 95.8945 9.31543C 95.8945 7.56543 96.6807 6.56055 98.0752 6.56055C 99.4697 6.56055 100.256 7.56543 100.256 9.31543C 100.256 11.0586 99.4697 12.0703 98.0752 12.0703ZM 106.907 5.50098C 105.902 5.50098 105.021 6.01367 104.549 6.86133L 104.439 6.86133L 104.439 5.63086L 103.318 5.63086L 103.318 15.4609L 104.494 15.4609L 104.494 11.8926L 104.604 11.8926C 105.007 12.6719 105.854 13.1299 106.907 13.1299C 108.78 13.1299 110.004 11.6191 110.004 9.31543C 110.004 6.99805 108.787 5.50098 106.907 5.50098ZM 106.627 12.0703C 105.301 12.0703 104.46 11.0039 104.46 9.31543C 104.46 7.62012 105.301 6.56055 106.634 6.56055C 107.98 6.56055 108.787 7.59277 108.787 9.31543C 108.787 11.0381 107.98 12.0703 106.627 12.0703Z"/>
<path id="path10_fill" d="M 1.13477 13L 2.31055 13L 2.31055 5.63086L 1.13477 5.63086L 1.13477 13ZM 1.72266 4.13379C 2.17383 4.13379 2.54297 3.76465 2.54297 3.31348C 2.54297 2.8623 2.17383 2.49316 1.72266 2.49316C 1.27148 2.49316 0.902344 2.8623 0.902344 3.31348C 0.902344 3.76465 1.27148 4.13379 1.72266 4.13379ZM 4.70312 3.13574L 4.70312 13L 5.93359 13L 5.93359 9.47949L 8.41504 9.47949C 10.2676 9.47949 11.5869 8.17383 11.5869 6.32812C 11.5869 4.44824 10.2949 3.13574 8.42871 3.13574L 4.70312 3.13574ZM 5.93359 4.22949L 8.10742 4.22949C 9.53613 4.22949 10.3223 4.97461 10.3223 6.32812C 10.3223 7.63379 9.50879 8.38574 8.10742 8.38574L 5.93359 8.38574L 5.93359 4.22949ZM 13.5215 13L 14.6973 13L 14.6973 8.63867C 14.6973 7.39453 15.4219 6.56055 16.7412 6.56055C 17.8555 6.56055 18.4434 7.20996 18.4434 8.51562L 18.4434 13L 19.6191 13L 19.6191 8.22852C 19.6191 6.49902 18.6348 5.50098 17.0762 5.50098C 15.9482 5.50098 15.1758 5.97949 14.8066 6.79297L 14.6973 6.79297L 14.6973 2.70508L 13.5215 2.70508L 13.5215 13ZM 24.7939 13.1299C 26.8926 13.1299 28.1914 11.6807 28.1914 9.31543C 28.1914 6.94336 26.8926 5.50098 24.7939 5.50098C 22.6953 5.50098 21.3965 6.94336 21.3965 9.31543C 21.3965 11.6807 22.6953 13.1299 24.7939 13.1299ZM 24.7939 12.0703C 23.3994 12.0703 22.6133 11.0586 22.6133 9.31543C 22.6133 7.56543 23.3994 6.56055 24.7939 6.56055C 26.1885 6.56055 26.9746 7.56543 26.9746 9.31543C 26.9746 11.0586 26.1885 12.0703 24.7939 12.0703ZM 30.0371 13L 31.2129 13L 31.2129 8.63867C 31.2129 7.34668 31.9717 6.56055 33.1475 6.56055C 34.3232 6.56055 34.8838 7.18945 34.8838 8.51562L 34.8838 13L 36.0596 13L 36.0596 8.22852C 36.0596 6.47852 35.1367 5.50098 33.4824 5.50098C 32.3545 5.50098 31.6367 5.97949 31.2676 6.79297L 31.1582 6.79297L 31.1582 5.63086L 30.0371 5.63086L 30.0371 13ZM 41.1523 6.54004C 42.3213 6.54004 43.1006 7.40137 43.1279 8.70703L 39.0674 8.70703C 39.1562 7.40137 39.9766 6.54004 41.1523 6.54004ZM 43.0938 11.0928C 42.7861 11.7422 42.1436 12.0908 41.1934 12.0908C 39.9424 12.0908 39.1289 11.168 39.0674 9.71191L 39.0674 9.65723L 44.3652 9.65723L 44.3652 9.20605C 44.3652 6.91602 43.1553 5.50098 41.166 5.50098C 39.1426 5.50098 37.8438 7.00488 37.8438 9.32227C 37.8438 11.6533 39.1221 13.1299 41.166 13.1299C 42.7793 13.1299 43.9141 12.3574 44.2695 11.0928L 43.0938 11.0928ZM 50.5654 13L 51.8574 13L 56.2461 4.27734L 56.2461 3.13574L 49.7178 3.13574L 49.7178 4.23633L 54.9951 4.23633L 54.9951 4.33203L 50.5654 13ZM 57.1826 15.5088L 58.2559 11.6191L 56.9502 11.6191L 56.3008 15.5088L 57.1826 15.5088ZM 66.5547 8.4541L 67.8057 8.4541C 69.207 8.4541 70.0752 9.16504 70.0752 10.3066C 70.0752 11.3867 69.1523 12.1592 67.8535 12.1592C 66.582 12.1592 65.6934 11.4824 65.584 10.4297L 64.3945 10.4297C 64.4834 12.1182 65.8643 13.2324 67.8672 13.2324C 69.8154 13.2324 71.3398 11.9678 71.3398 10.3408C 71.3398 8.99414 70.5264 8.06445 69.1865 7.89355L 69.1865 7.78418C 70.2666 7.52441 70.916 6.66309 70.916 5.4873C 70.916 4.05176 69.542 2.90332 67.8193 2.90332C 65.9395 2.90332 64.7158 3.95605 64.5928 5.66504L 65.7891 5.66504C 65.8916 4.60547 66.6367 3.97656 67.7715 3.97656C 68.9062 3.97656 69.665 4.64648 69.665 5.65137C 69.665 6.67676 68.8721 7.40137 67.751 7.40137L 66.5547 7.40137L 66.5547 8.4541ZM 81.751 9.18555L 81.751 7.98242L 77.752 7.98242L 77.752 9.0625L 80.5273 9.0625L 80.5273 9.30176C 80.5273 10.9697 79.3311 12.0977 77.5674 12.0977C 75.585 12.0977 74.3545 10.5527 74.3545 8.06445C 74.3545 5.61035 75.6055 4.03809 77.5605 4.03809C 79.0234 4.03809 80.0146 4.74219 80.4385 6.0752L 81.6895 6.0752C 81.334 4.12012 79.748 2.90332 77.5605 2.90332C 74.8604 2.90332 73.0898 4.94727 73.0898 8.06445C 73.0898 11.2227 74.833 13.2324 77.5605 13.2324C 80.083 13.2324 81.751 11.6191 81.751 9.18555ZM 91.8545 13.2324C 93.9531 13.2324 95.5117 12.0635 95.8398 10.252L 94.5889 10.252C 94.2744 11.3936 93.2285 12.0977 91.8545 12.0977C 89.9541 12.0977 88.7646 10.5459 88.7646 8.07129C 88.7646 5.59668 89.9541 4.03809 91.8477 4.03809C 93.208 4.03809 94.2607 4.83789 94.5889 6.10938L 95.8398 6.10938C 95.5459 4.20898 93.9258 2.90332 91.8477 2.90332C 89.168 2.90332 87.5 4.88574 87.5 8.07129C 87.5 11.25 89.1748 13.2324 91.8545 13.2324ZM 100.782 13.1299C 102.881 13.1299 104.18 11.6807 104.18 9.31543C 104.18 6.94336 102.881 5.50098 100.782 5.50098C 98.6836 5.50098 97.3848 6.94336 97.3848 9.31543C 97.3848 11.6807 98.6836 13.1299 100.782 13.1299ZM 100.782 12.0703C 99.3877 12.0703 98.6016 11.0586 98.6016 9.31543C 98.6016 7.56543 99.3877 6.56055 100.782 6.56055C 102.177 6.56055 102.963 7.56543 102.963 9.31543C 102.963 11.0586 102.177 12.0703 100.782 12.0703ZM 106.025 13L 107.201 13L 107.201 8.63867C 107.201 7.34668 107.96 6.56055 109.136 6.56055C 110.312 6.56055 110.872 7.18945 110.872 8.51562L 110.872 13L 112.048 13L 112.048 8.22852C 112.048 6.47852 111.125 5.50098 109.471 5.50098C 108.343 5.50098 107.625 5.97949 107.256 6.79297L 107.146 6.79297L 107.146 5.63086L 106.025 5.63086L 106.025 13ZM 114.201 13L 115.377 13L 115.377 8.63867C 115.377 7.34668 116.136 6.56055 117.312 6.56055C 118.487 6.56055 119.048 7.18945 119.048 8.51562L 119.048 13L 120.224 13L 120.224 8.22852C 120.224 6.47852 119.301 5.50098 117.646 5.50098C 116.519 5.50098 115.801 5.97949 115.432 6.79297L 115.322 6.79297L 115.322 5.63086L 114.201 5.63086L 114.201 13ZM 125.316 6.54004C 126.485 6.54004 127.265 7.40137 127.292 8.70703L 123.231 8.70703C 123.32 7.40137 124.141 6.54004 125.316 6.54004ZM 127.258 11.0928C 126.95 11.7422 126.308 12.0908 125.357 12.0908C 124.106 12.0908 123.293 11.168 123.231 9.71191L 123.231 9.65723L 128.529 9.65723L 128.529 9.20605C 128.529 6.91602 127.319 5.50098 125.33 5.50098C 123.307 5.50098 122.008 7.00488 122.008 9.32227C 122.008 11.6533 123.286 13.1299 125.33 13.1299C 126.943 13.1299 128.078 12.3574 128.434 11.0928L 127.258 11.0928ZM 136.473 7.88672C 136.268 6.57422 135.174 5.50098 133.383 5.50098C 131.318 5.50098 130.006 6.99121 130.006 9.28809C 130.006 11.6328 131.325 13.1299 133.39 13.1299C 135.16 13.1299 136.261 12.1318 136.473 10.7783L 135.283 10.7783C 135.064 11.6123 134.374 12.0703 133.383 12.0703C 132.07 12.0703 131.223 10.9902 131.223 9.28809C 131.223 7.62012 132.057 6.56055 133.383 6.56055C 134.442 6.56055 135.092 7.15527 135.283 7.88672L 136.473 7.88672ZM 138.838 3.72363L 138.838 5.63086L 137.648 5.63086L 137.648 6.61523L 138.838 6.61523L 138.838 11.0859C 138.838 12.4941 139.446 13.0547 140.964 13.0547C 141.196 13.0547 141.422 13.0273 141.654 12.9863L 141.654 11.9951C 141.436 12.0156 141.319 12.0225 141.107 12.0225C 140.342 12.0225 140.014 11.6533 140.014 10.7852L 140.014 6.61523L 141.654 6.61523L 141.654 5.63086L 140.014 5.63086L 140.014 3.72363L 138.838 3.72363ZM 143.459 13L 144.635 13L 144.635 5.63086L 143.459 5.63086L 143.459 13ZM 144.047 4.13379C 144.498 4.13379 144.867 3.76465 144.867 3.31348C 144.867 2.8623 144.498 2.49316 144.047 2.49316C 143.596 2.49316 143.227 2.8623 143.227 3.31348C 143.227 3.76465 143.596 4.13379 144.047 4.13379ZM 149.905 13.1299C 152.004 13.1299 153.303 11.6807 153.303 9.31543C 153.303 6.94336 152.004 5.50098 149.905 5.50098C 147.807 5.50098 146.508 6.94336 146.508 9.31543C 146.508 11.6807 147.807 13.1299 149.905 13.1299ZM 149.905 12.0703C 148.511 12.0703 147.725 11.0586 147.725 9.31543C 147.725 7.56543 148.511 6.56055 149.905 6.56055C 151.3 6.56055 152.086 7.56543 152.086 9.31543C 152.086 11.0586 151.3 12.0703 149.905 12.0703ZM 155.148 13L 156.324 13L 156.324 8.63867C 156.324 7.34668 157.083 6.56055 158.259 6.56055C 159.435 6.56055 159.995 7.18945 159.995 8.51562L 159.995 13L 161.171 13L 161.171 8.22852C 161.171 6.47852 160.248 5.50098 158.594 5.50098C 157.466 5.50098 156.748 5.97949 156.379 6.79297L 156.27 6.79297L 156.27 5.63086L 155.148 5.63086L 155.148 13Z"/>
<path id="path11_fill" d="M 3.45898 13L 4.68945 13L 4.68945 3.13574L 3.46582 3.13574L 0.84082 5.02246L 0.84082 6.32129L 3.34961 4.50293L 3.45898 4.50293L 3.45898 13Z"/>
<path id="path12_fill" d="M 1.03906 5.91113L 1.03906 5.91797L 2.22852 5.91797L 2.22852 5.91113C 2.22852 4.74902 3.00781 3.97656 4.16309 3.97656C 5.25 3.97656 6.09082 4.73535 6.09082 5.71973C 6.09082 6.5127 5.7832 7.0459 4.51172 8.42676L 1.10059 12.1523L 1.10059 13L 7.48535 13L 7.48535 11.8926L 2.86426 11.8926L 2.86426 11.7832L 5.23633 9.2334C 6.85645 7.49707 7.32129 6.69727 7.32129 5.67188C 7.32129 4.10645 5.96777 2.90332 4.19727 2.90332C 2.36523 2.90332 1.03906 4.16113 1.03906 5.91113Z"/>
<path id="path13_fill" d="M 3.11719 8.4541L 4.36816 8.4541C 5.76953 8.4541 6.6377 9.16504 6.6377 10.3066C 6.6377 11.3867 5.71484 12.1592 4.41602 12.1592C 3.14453 12.1592 2.25586 11.4824 2.14648 10.4297L 0.957031 10.4297C 1.0459 12.1182 2.42676 13.2324 4.42969 13.2324C 6.37793 13.2324 7.90234 11.9678 7.90234 10.3408C 7.90234 8.99414 7.08887 8.06445 5.74902 7.89355L 5.74902 7.78418C 6.8291 7.52441 7.47852 6.66309 7.47852 5.4873C 7.47852 4.05176 6.10449 2.90332 4.38184 2.90332C 2.50195 2.90332 1.27832 3.95605 1.15527 5.66504L 2.35156 5.66504C 2.4541 4.60547 3.19922 3.97656 4.33398 3.97656C 5.46875 3.97656 6.22754 4.64648 6.22754 5.65137C 6.22754 6.67676 5.43457 7.40137 4.31348 7.40137L 3.11719 7.40137L 3.11719 8.4541Z"/>
<path id="path14_fill" d="M 5.60547 13L 6.80859 13L 6.80859 10.9561L 8.20996 10.9561L 8.20996 9.85547L 6.80859 9.85547L 6.80859 3.13574L 5.02441 3.13574C 3.24707 5.79492 1.68164 8.26953 0.799805 9.83496L 0.799805 10.9561L 5.60547 10.9561L 5.60547 13ZM 2.05762 9.78027C 3.2334 7.78418 4.51855 5.74707 5.53027 4.27734L 5.6123 4.27734L 5.6123 9.8623L 2.05762 9.8623L 2.05762 9.78027Z"/>
<path id="path15_stroke" d="M 0 126C -0.552285 126 -1 126.448 -1 127C -1 127.552 -0.552285 128 0 128L 0 126ZM 500.707 35.7071C 501.098 35.3166 501.098 34.6834 500.707 34.2929C 500.317 33.9024 499.683 33.9024 499.293 34.2929L 500.707 35.7071ZM 419.358 113.833L 418.482 114.315L 419.358 113.833ZM 420.942 114.058L 421.649 114.766L 420.942 114.058ZM 397.206 75.2708L 396.883 74.3243L 397.206 75.2708ZM 398.404 75.7354L 399.281 75.2535L 398.404 75.7354ZM 353.573 89.36L 354.405 88.8053L 354.405 88.8053L 353.573 89.36ZM 354.728 89.7518L 354.405 88.8053L 354.728 89.7518ZM 333.25 60.2934L 332.886 59.3622L 333.25 60.2934ZM 334.447 60.6699L 333.615 61.2246L 334.447 60.6699ZM 310.626 68.0915L 311.551 67.7107L 310.626 68.0915ZM 311.915 68.642L 312.279 69.5732L 311.915 68.642ZM 302.967 53.6362L 303.812 54.1701L 302.967 53.6362ZM 304.737 53.7894L 303.812 54.1701L 304.737 53.7894ZM 279.116 89.0413L 279.851 88.3633L 279.116 89.0413ZM 280.696 88.8973L 281.542 89.4313L 280.696 88.8973ZM 196.291 0.465614L 195.742 -0.370255L 196.291 0.465614ZM 197.575 0.623541L 198.31 -0.0543994L 197.575 0.623541ZM 129.446 43.6161L 128.876 44.4383L 129.446 43.6161ZM 130.564 43.6298L 131.113 44.4657L 130.564 43.6298ZM 116.429 35.8095L 117.246 36.3862L 116.429 35.8095ZM 117.815 35.564L 117.246 36.3862L 117.815 35.564ZM 92.1731 67.9378L 91.3843 68.5525L 92.1731 67.9378ZM 93.778 67.8978L 92.9611 67.3211L 93.778 67.8978ZM 66 35C 66 34.4477 65.5523 34 65 34C 64.4477 34 64 34.4477 64 35L 66 35ZM 64 35C 64 35.5523 64.4477 36 65 36C 65.5523 36 66 35.5523 66 35L 64 35ZM 0 128C 0.317001 128 0.567223 127.868 0.681966 127.802C 0.80187 127.731 0.960615 127.617 1.08898 127.511C 1.32463 127.315 1.62884 127.019 1.95365 126.673C 2.58965 125.995 3.43428 124.998 4.43354 123.756C 6.42504 121.279 9.10598 117.739 12.2272 113.499C 18.4666 105.023 26.5052 93.7006 34.4451 82.3222C 42.3849 70.9439 50.2336 59.4992 56.0956 50.7765C 59.0274 46.4141 61.4668 42.7254 63.1718 40.0672C 64.0257 38.7359 64.7027 37.6511 65.1637 36.8718C 65.3965 36.4782 65.5854 36.1424 65.7119 35.8962C 65.778 35.7669 65.8412 35.6323 65.8818 35.5332C 65.9066 35.4719 66 35.2508 66 35L 64 35C 64 34.8117 64.0631 34.696 64.0283 34.7818C 64.0093 34.8298 63.9835 34.8839 63.9322 34.9836C 63.8239 35.1952 63.6643 35.4784 63.4422 35.8537C 62.9936 36.6125 62.3356 37.6665 61.4883 38.9875C 59.791 41.6339 57.3633 45.3047 54.4356 49.661C 48.5789 58.3758 40.7401 69.8061 32.8049 81.1777C 24.8698 92.5494 16.8459 103.852 10.6166 112.313C 7.50339 116.542 4.8484 120.049 2.87506 122.502C 1.89189 123.725 1.09687 124.664 0.495081 125.305C 0.200998 125.618 -0.0132254 125.828 -0.188165 125.972C -0.265089 126.037 -0.345753 126.084 -0.315213 126.068C -0.310951 126.065 -0.237059 126.034 -0.254714 126.042C -0.216935 126.028 -0.126444 126 0 126L 0 128ZM 66 35C 66 35.0704 65.9915 35.2782 65.8459 35.4976C 65.6674 35.7664 65.3904 35.8954 65.1445 35.9185C 64.9461 35.9372 64.8027 35.8862 64.761 35.8705C 64.7773 35.8772 64.6906 35.8395 64.6987 35.8432C 64.7027 35.8456 64.6795 35.833 64.6781 35.8319C 64.6116 35.7948 64.8536 35.9652 65.0809 36.1852C 65.56 36.6471 66.2565 37.4048 67.1485 38.4237C 68.9401 40.4698 71.4282 43.4707 74.2238 46.914C 79.817 53.8029 86.6041 62.418 91.3843 68.5525L 92.9619 67.3232C 88.1784 61.1845 81.3789 52.5537 75.7765 45.6534C 72.9743 42.2021 70.4624 39.1727 68.6533 37.1063C 67.745 36.069 66.9911 35.2499 66.4698 34.7462C 66.219 34.5041 65.9562 34.2693 65.7221 34.126C 65.662 34.0892 65.354 33.89 64.9572 33.9273C 64.6777 33.9536 64.3752 34.0968 64.1797 34.3913C 64.017 34.6363 64 34.881 64 35L 66 35ZM 94.595 68.4745L 117.246 36.3862L 115.612 35.2329L 92.9611 67.3211L 94.595 68.4745ZM 117.246 36.3862L 128.876 44.4383L 130.015 42.794L 118.384 34.7418L 117.246 36.3862ZM 131.113 44.4657L 196.84 1.30148L 195.742 -0.370255L 130.015 42.794L 131.113 44.4657ZM 196.84 1.30148L 278.381 89.7192L 279.851 88.3633L 198.31 -0.0543994L 196.84 1.30148ZM 281.542 89.4313L 303.812 54.1701L 302.121 53.1022L 279.851 88.3633L 281.542 89.4313ZM 303.812 54.1701L 309.701 68.4722L 311.551 67.7107L 305.661 53.4086L 303.812 54.1701ZM 312.279 69.5732L 333.615 61.2246L 332.886 59.3622L 311.551 67.7107L 312.279 69.5732ZM 333.615 61.2246L 352.741 89.9147L 354.405 88.8053L 335.279 60.1152L 333.615 61.2246ZM 355.051 90.6983L 397.528 76.2173L 396.883 74.3243L 354.405 88.8053L 355.051 90.6983ZM 397.528 76.2173L 418.482 114.315L 420.234 113.351L 399.281 75.2535L 397.528 76.2173ZM 421.649 114.766L 500.707 35.7071L 499.293 34.2929L 420.234 113.351L 421.649 114.766ZM 418.482 114.315C 419.124 115.483 420.707 115.708 421.649 114.766L 420.234 113.351L 420.234 113.351L 418.482 114.315ZM 397.528 76.2173L 397.528 76.2173L 399.281 75.2535C 398.813 74.4029 397.802 74.0111 396.883 74.3243L 397.528 76.2173ZM 352.741 89.9147C 353.244 90.6693 354.192 90.991 355.051 90.6983L 354.405 88.8053L 354.405 88.8053L 352.741 89.9147ZM 333.615 61.2246L 333.615 61.2246L 335.279 60.1152C 334.757 59.333 333.761 59.0196 332.886 59.3622L 333.615 61.2246ZM 309.701 68.4722C 310.117 69.4809 311.264 69.9707 312.279 69.5732L 311.551 67.7107L 311.551 67.7107L 309.701 68.4722ZM 303.812 54.1701L 303.812 54.1701L 305.661 53.4086C 305.043 51.9073 302.988 51.7294 302.121 53.1022L 303.812 54.1701ZM 278.381 89.7192C 279.273 90.6864 280.839 90.5437 281.542 89.4313L 279.851 88.3633L 279.851 88.3633L 278.381 89.7192ZM 196.84 1.30148L 196.84 1.30148L 198.31 -0.0543994C 197.647 -0.773816 196.56 -0.907459 195.742 -0.370255L 196.84 1.30148ZM 128.876 44.4383C 129.547 44.9023 130.431 44.9131 131.113 44.4657L 130.015 42.794L 130.015 42.794L 128.876 44.4383ZM 117.246 36.3862L 117.246 36.3862L 118.384 34.7418C 117.482 34.1172 116.244 34.3363 115.612 35.2329L 117.246 36.3862ZM 91.3843 68.5525C 92.2118 69.6144 93.8231 69.568 94.595 68.4745L 92.9611 67.3211C 92.9591 67.3239 92.9582 67.3245 92.9589 67.3239C 92.9594 67.3235 92.9602 67.3229 92.961 67.3225C 92.9623 67.3218 92.9619 67.3223 92.9598 67.3224C 92.9577 67.3224 92.9577 67.3219 92.9599 67.3229C 92.9612 67.3235 92.9624 67.3243 92.9633 67.325C 92.9644 67.3258 92.9638 67.3256 92.9619 67.3232L 91.3843 68.5525ZM 64 35C 64 35 64 35 64 35C 64 35 64 35 64 35C 64 35 64 35 64 35C 64 35 64 35 64 35C 65 35 66 35 66 35C 66 35 66 35 66 35C 66 35 66 35 66 35C 66 35 66 35 66 35C 66 35 66 35 66 35C 66 35 66 35 66 35C 66 35 66 35 66 35C 66 35 66 35 66 35C 66 35 66 35 66 35C 66 35 65 35 64 35C 64 35 64 35 64 35C 64 35 64 35 64 35C 64 35 64 35 64 35C 64 35 64 35 64 35L 66 35C 66 35 66 35 66 35C 66 35 66 35 66 35C 66 35 66 35 66 35C 66 35 66 35 66 35C 65 35 64 35 64 35C 64 35 64 35 64 35C 64 35 64 35 64 35C 64 35 64 35 64 35C 64 35 64 35 64 35C 64 35 64 35 64 35C 64 35 64 35 64 35C 64 35 64 35 64 35C 64 35 64 35 64 35C 64 35 65 35 66 35C 66 35 66 35 66 35C 66 35 66 35 66 35C 66 35 66 35 66 35C 66 35 66 35 66 35L 64 35Z"/>
<path id="path16_stroke" d="M -0.775562 97.3687C -1.1242 97.7971 -1.0596 98.4269 -0.631271 98.7756C -0.20294 99.1242 0.42692 99.0596 0.775562 98.6313L -0.775562 97.3687ZM 70 12L 70.8192 11.4265C 70.6394 11.1697 70.3496 11.012 70.0362 11.0007C 69.7229 10.9893 69.4224 11.1256 69.2244 11.3687L 70 12ZM 91 42L 90.1808 42.5735C 90.3503 42.8156 90.6183 42.9704 90.9128 42.9962C 91.2073 43.022 91.4981 42.9161 91.7071 42.7071L 91 42ZM 105 28L 105.625 27.2191C 105.227 26.9008 104.653 26.9326 104.293 27.2929L 105 28ZM 160 72L 159.375 72.7809C 159.761 73.0897 160.315 73.0701 160.678 72.7348L 160 72ZM 238 0L 238.808 -0.588986C 238.64 -0.819555 238.382 -0.967368 238.098 -0.995223C 237.814 -1.02308 237.531 -0.928322 237.322 -0.734803L 238 0ZM 281 59L 280.192 59.589C 280.377 59.8436 280.672 59.9958 280.987 59.9999C 281.302 60.004 281.601 59.8594 281.793 59.6097L 281 59ZM 301 33L 301.807 32.41C 301.622 32.1558 301.327 32.004 301.012 32.0001C 300.698 31.9962 300.399 32.1408 300.207 32.3903L 301 33ZM 320 59L 319.193 59.59C 319.448 59.9394 319.899 60.0849 320.31 59.9506C 320.722 59.8163 321 59.4327 321 59L 320 59ZM 320 49L 320.781 48.3753C 320.516 48.0437 320.07 47.9158 319.669 48.0564C 319.268 48.1969 319 48.5753 319 49L 320 49ZM 328 59L 327.219 59.6247C 327.385 59.8326 327.628 59.9656 327.892 59.9942C 328.157 60.0228 328.422 59.9447 328.629 59.7772L 328 59ZM 349 42L 349.577 41.183C 349.211 40.925 348.719 40.9412 348.371 41.2228L 349 42ZM 366 54L 365.423 54.817C 365.681 54.9987 366.009 55.0484 366.309 54.9512L 366 54ZM 403 42L 403.303 41.0471C 403.104 40.9837 402.89 40.9843 402.691 41.0488L 403 42ZM 425 49L 424.697 49.9529C 424.795 49.9841 424.897 50 425 50L 425 49ZM 505 50C 505.552 50 506 49.5523 506 49C 506 48.4477 505.552 48 505 48L 505 50ZM 0.775562 98.6313L 70.7756 12.6313L 69.2244 11.3687L -0.775562 97.3687L 0.775562 98.6313ZM 69.1808 12.5735L 90.1808 42.5735L 91.8192 41.4265L 70.8192 11.4265L 69.1808 12.5735ZM 91.7071 42.7071L 105.707 28.7071L 104.293 27.2929L 90.2929 41.2929L 91.7071 42.7071ZM 104.375 28.7809L 159.375 72.7809L 160.625 71.2191L 105.625 27.2191L 104.375 28.7809ZM 160.678 72.7348L 238.678 0.734803L 237.322 -0.734803L 159.322 71.2652L 160.678 72.7348ZM 237.192 0.588986L 280.192 59.589L 281.808 58.411L 238.808 -0.588986L 237.192 0.588986ZM 281.793 59.6097L 301.793 33.6097L 300.207 32.3903L 280.207 58.3903L 281.793 59.6097ZM 300.193 33.59L 319.193 59.59L 320.807 58.41L 301.807 32.41L 300.193 33.59ZM 321 59L 321 49L 319 49L 319 59L 321 59ZM 319.219 49.6247L 327.219 59.6247L 328.781 58.3753L 320.781 48.3753L 319.219 49.6247ZM 328.629 59.7772L 349.629 42.7772L 348.371 41.2228L 327.371 58.2228L 328.629 59.7772ZM 348.423 42.817L 365.423 54.817L 366.577 53.183L 349.577 41.183L 348.423 42.817ZM 366.309 54.9512L 403.309 42.9512L 402.691 41.0488L 365.691 53.0488L 366.309 54.9512ZM 402.697 42.9529L 424.697 49.9529L 425.303 48.0471L 403.303 41.0471L 402.697 42.9529ZM 425 50L 505 50L 505 48L 425 48L 425 50Z"/>
</defs>
</svg>
